<svg width="325" height="311" viewBox="0 0 325 311" fill="none" xmlns="http://www.w3.org/2000/svg">
<path d="M0 42C0 18.804 18.804 0 42 0H283C306.196 0 325 18.804 325 42V269C325 292.196 306.196 311 283 311H155.5C69.6197 311 0 241.38 0 155.5V42Z" fill="#F5C44A"/>
<path d="M164.5 116L250 105M55 61.9998C55 61.9998 78 29.9998 110 37.9998C142 45.9998 152.5 75.9998 152.5 75.9998M100.5 89.4998V93.4998M93.5 155.5L294 221.5M203 135.5V138.5" stroke="#664500" stroke-width="37" stroke-linecap="round" stroke-linejoin="round"/>
<path d="M42.5 193L60 260.513M31 250.5L109 277.5M184.5 238.5L34 242" stroke="#DB630E" stroke-width="37" stroke-linecap="round" stroke-linejoin="round"/>
<path d="M31 250.5L71.5 285.5" stroke="#DB630E" stroke-width="37" stroke-linecap="round" stroke-linejoin="round"/>
</svg>
